<svg width="21" height="20" viewBox="0 0 21 20" fill="none" xmlns="http://www.w3.org/2000/svg">
<path d="M11.0083 9.05866C10.925 9.05033 10.825 9.05033 10.7333 9.05866C8.74999 8.99199 7.17499 7.36699 7.17499 5.36699C7.17499 3.32533 8.82499 1.66699 10.875 1.66699C12.9167 1.66699 14.575 3.32533 14.575 5.36699C14.5667 7.36699 12.9917 8.99199 11.0083 9.05866Z" fill="white" stroke="white" stroke-width="1.2" stroke-linecap="round" stroke-linejoin="round"/>
<path d="M6.84166 12.133C4.825 13.483 4.825 15.683 6.84166 17.0247C9.13333 18.558 12.8917 18.558 15.1833 17.0247C17.2 15.6747 17.2 13.4747 15.1833 12.133C12.9 10.608 9.14166 10.608 6.84166 12.133Z" fill="white" stroke="white" stroke-width="1.2" stroke-linecap="round" stroke-linejoin="round"/>
</svg>
