<svg width="21" height="20" viewBox="0 0 21 20" fill="none" xmlns="http://www.w3.org/2000/svg">
<path d="M11.0083 9.05841C10.925 9.05008 10.825 9.05008 10.7333 9.05841C8.74999 8.99175 7.17499 7.36675 7.17499 5.36675C7.17499 3.32508 8.82499 1.66675 10.875 1.66675C12.9167 1.66675 14.575 3.32508 14.575 5.36675C14.5667 7.36675 12.9917 8.99175 11.0083 9.05841Z" stroke="#5B6067" stroke-width="1.2" stroke-linecap="round" stroke-linejoin="round"/>
<path d="M6.84166 12.1333C4.825 13.4833 4.825 15.6833 6.84166 17.0249C9.13333 18.5583 12.8917 18.5583 15.1833 17.0249C17.2 15.6749 17.2 13.4749 15.1833 12.1333C12.9 10.6083 9.14166 10.6083 6.84166 12.1333Z" stroke="#5B6067" stroke-width="1.2" stroke-linecap="round" stroke-linejoin="round"/>
</svg>
