<svg width="24" height="24" viewBox="0 0 24 24" fill="none" xmlns="http://www.w3.org/2000/svg">
<g clip-path="url(#clip0_11068_570)">
<path d="M2.28906 6.77998V16.51C2.28906 18.41 3.63906 19.19 5.27906 18.25L7.62906 16.91C8.13906 16.62 8.98906 16.59 9.51906 16.86L14.7691 19.49C15.2991 19.75 16.1491 19.73 16.6591 19.44L20.9891 16.96C21.5391 16.64 21.9991 15.86 21.9991 15.22V5.48998C21.9991 3.58998 20.6491 2.80998 19.0091 3.74998L16.6591 5.08998C16.1491 5.37998 15.2991 5.40998 14.7691 5.13998L9.51906 2.51998C8.98906 2.25998 8.13906 2.27998 7.62906 2.56998L3.29906 5.04998C2.73906 5.36998 2.28906 6.14998 2.28906 6.77998Z" stroke="#A3ABAC" stroke-width="1.5" stroke-linecap="round" stroke-linejoin="round"/>
<path d="M8.56055 3V16" stroke="#A3ABAC" stroke-width="1.5" stroke-linecap="round" stroke-linejoin="round"/>
<path d="M15.7305 5.61914V18.9991" stroke="#A3ABAC" stroke-width="1.5" stroke-linecap="round" stroke-linejoin="round"/>
</g>
<defs>
<clipPath id="clip0_11068_570">
<rect width="24" height="24" fill="white"/>
</clipPath>
</defs>
</svg>
